<mxfile host="app.diagrams.net" modified="2022-04-20T08:24:26.343Z" agent="5.0 (Windows)" etag="bFa53IYGHARNp_b44x-x" version="17.4.5" type="github">
  <diagram name="Page-1" id="97916047-d0de-89f5-080d-49f4d83e522f">
    <mxGraphModel dx="1422" dy="722" grid="1" gridSize="10" guides="1" tooltips="1" connect="1" arrows="1" fold="1" page="1" pageScale="1.5" pageWidth="1169" pageHeight="827" background="none" math="0" shadow="0">
      <root>
        <mxCell id="0" />
        <mxCell id="1" parent="0" />
        <mxCell id="2" value="IShipCallAdditionInfo" style="rounded=1;fillColor=#00CC66;strokeColor=none;shadow=1;gradientColor=none;fontStyle=1;fontColor=#FFFFFF;fontSize=21&#xa;;" parent="1" vertex="1">
          <mxGeometry x="620" y="180" width="252" height="60" as="geometry" />
        </mxCell>
        <mxCell id="lcggfKQUq6D2q7CxVZYy-71" style="edgeStyle=none;rounded=0;orthogonalLoop=1;jettySize=auto;html=1;exitX=0;exitY=0.5;exitDx=0;exitDy=0;" parent="1" source="lcggfKQUq6D2q7CxVZYy-62" edge="1">
          <mxGeometry relative="1" as="geometry">
            <mxPoint x="870" y="220" as="targetPoint" />
          </mxGeometry>
        </mxCell>
        <mxCell id="lcggfKQUq6D2q7CxVZYy-62" value="AdditionalInfo" style="rounded=1;fillColor=#66B2FF;strokeColor=none;shadow=1;gradientColor=none;fontStyle=1;fontColor=#FFFFFF;fontSize=21&#xa;;" parent="1" vertex="1">
          <mxGeometry x="1400" y="600" width="200" height="60" as="geometry" />
        </mxCell>
      </root>
    </mxGraphModel>
  </diagram>
</mxfile>
